<?xml version="1.0" encoding="UTF-8"?>
<svg id="Layer_1" xmlns="http://www.w3.org/2000/svg" version="1.1" viewBox="0 0 160 160">
  <!-- Generator: Adobe Illustrator 30.4.0, SVG Export Plug-In . SVG Version: 2.1.4 Build 226)  -->
  <defs>
    <style>
      .st0 {
        display: none;
      }

      .st0, .st1 {
        fill: #fff;
      }
    </style>
  </defs>
  <path class="st0" d="M-38.01,192V-32.5h225v225H-38.01v-.5ZM83.95,78.52c-1.96,9.95-.6,19.1,3.61,28.37,2.14,4.73,4.07,9.63,4.94,14.79.79,8.74-3.03,16.63-10.74,20.3-.42.33-1.88,1.92-1.41,2.25l2.1,1.51c20.13-2.76,34.86-17.71,38.33-37.62,1.07-8.13.68-15.78-.35-24.2-.87-7.2,1.38-10.2.26-13.65-.9-2.77-11.59,7.49-16.35,15.79,3.5-18.05,10.28-32.5,3.2-51.23-3-7.95-10.91-22-12.27-20.18l-1.17,1.57c-.75,8.82-4.23,16.14-9.53,23.14-13.56,14.37-26.67,18.79-32.59,39.85-.15-10.8,2.96-21.07,7-30.58.29-.68.37-3.3-.33-3.13l-2.94.7c-19.23,13.36-30.25,34.1-29.14,57.67-.15,22.2,15.74,39.53,37.57,42.33l2.8-.54c.48-.09.09-1.98-.03-2.39-12.19-5.34-20.14-16.98-20.5-30.79,6.12,7.42,11.69,14.8,21.59,17.77-3.62-18.49-6.58-33.72,8.75-45.99l7.18-5.75h.02Z"/>
  <path class="st1" d="M83.95,78.52l-7.18,5.75c-15.32,12.27-12.37,27.5-8.75,45.99-9.91-2.98-15.47-10.35-21.59-17.77.36,13.81,8.31,25.45,20.5,30.79.12.42.51,2.3.03,2.39l-2.8.54c-21.83-2.8-37.72-20.13-37.57-42.33-1.11-23.57,9.91-44.31,29.14-57.67l2.94-.7c.7-.17.61,2.46.33,3.13-4.03,9.51-7.15,19.77-7,30.58,5.93-21.06,19.03-25.48,32.59-39.85,5.3-7,8.78-14.32,9.53-23.14l1.17-1.57c1.35-1.82,9.26,12.24,12.27,20.18,7.07,18.73.3,33.18-3.2,51.23,4.76-8.3,15.46-18.56,16.35-15.79,1.12,3.45-1.14,6.45-.26,13.65,1.02,8.42,1.42,16.07.35,24.2-3.47,19.91-18.2,34.86-38.33,37.62l-2.1-1.51c-.46-.33,1-1.92,1.41-2.25,7.7-3.67,11.53-11.55,10.74-20.3-.87-5.15-2.8-10.06-4.94-14.79-4.2-9.27-5.57-18.42-3.61-28.37h-.02ZM74.95,80.96c8.92-6.96,13.77-15.96,14.68-13.64l1.03,2.63c-5.92,12.73-4.57,25.88,1.48,38.22,5.35,10.29,5.93,21.78-.87,31.4,16.93-6.47,26.59-22.76,26.49-40.79-.04-7.26-1.06-14.3-1.8-21.75-5.29,5.5-9.5,13.43-11.97,20.26-2.67,7.36-7.12-3.36.55-28.83,4.74-15.74,2.41-31.8-7.51-45.66-3.79,14.41-12.29,22.63-23.69,32.22-12.71,8.61-19.04,22.46-18.41,37.99l-.94,2.84c-.2.61-2.38-.23-2.68-.53-4.55-13.92-3.6-27.31,1.53-41.74-15.87,12.29-23.05,30.67-22.68,50.21.31,16.09,9.33,30.64,24.14,35.82-9.31-10.09-14.77-23.87-10.23-37.36,6.52,8.45,10.44,16.11,18.53,21.21-2.77-17.82-1.82-31.44,12.35-42.49h0Z"/>
  <path class="st0" d="M74.95,80.96c-14.17,11.05-15.12,24.67-12.35,42.49-8.09-5.1-12.01-12.76-18.53-21.21-4.54,13.49.92,27.27,10.23,37.36-14.81-5.18-23.83-19.73-24.14-35.82-.37-19.54,6.81-37.92,22.68-50.21-5.13,14.43-6.08,27.83-1.53,41.74.31.3,2.48,1.14,2.68.53l.94-2.84c-.63-15.53,5.69-29.38,18.41-37.99,11.4-9.59,19.9-17.81,23.69-32.22,9.92,13.86,12.25,29.92,7.51,45.66-7.67,25.48-3.22,36.2-.55,28.83,2.48-6.83,6.68-14.76,11.97-20.26.74,7.45,1.76,14.49,1.8,21.75.09,18.03-9.56,34.32-26.49,40.79,6.8-9.62,6.23-21.11.87-31.4-6.05-12.34-7.4-25.49-1.48-38.22l-1.03-2.63c-.91-2.32-5.76,6.69-14.68,13.64h0Z"/>
</svg>